<svg width="128" height="128" viewBox="0 0 128 128" fill="none" xmlns="http://www.w3.org/2000/svg">
  <!-- Background circle -->
  <circle cx="64" cy="64" r="64" fill="#2563EB"/>
  
  <!-- Chat bubble icon -->
  <path d="M32 48C32 39.1634 39.1634 32 48 32H80C88.8366 32 96 39.1634 96 48V72C96 80.8366 88.8366 88 80 88H48C39.1634 88 32 80.8366 32 72V48Z" fill="white"/>
  
  <!-- Chat bubble tail -->
  <path d="M48 88L56 96L48 88Z" fill="white"/>
  
  <!-- Message lines -->
  <rect x="40" y="44" width="32" height="4" rx="2" fill="#2563EB"/>
  <rect x="40" y="52" width="24" height="4" rx="2" fill="#2563EB"/>
  <rect x="40" y="60" width="28" height="4" rx="2" fill="#2563EB"/>
  
  <!-- Lead/CRM icon -->
  <circle cx="88" cy="40" r="12" fill="#10B981"/>
  <path d="M82 40L85 43L94 34" stroke="white" stroke-width="2" stroke-linecap="round" stroke-linejoin="round"/>
</svg> 